<svg class="svgmap" version="1.1" xmlns="http://www.w3.org/2000/svg" xmlns:xlink="http://www.w3.org/1999/xlink" x="0px" y="0px" viewBox="0 0 500 500" style="enable-background:new 0 0 500 500;" xml:space="preserve">
<g class="svgmap__map">
    <path d="M179.5,77.1c-0.9-1.2-3.3,0.2-5.8-1.5c-0.7-0.4-1.5-0.8-2.3-1.1c-0.1,0-0.1,0.1-0.2,0.1 c-0.5,0.2-2.2,1.6-3.8,3.1c1.8,1.4,8.5,3.5,10.3,3.5c0.9,0,1.3-0.4,1.7-0.7C179.7,78.9,179.8,77.5,179.5,77.1z"/>
    <path d="M185,80.6c0.2-0.5-1.4-3.1,1.7-3.3c3.1-0.2,5.3-0.6,5.8-2.5c0.5-1.9,4.1-1,5.1-1.1c0.8-0.1,3.5-2.6,6.2-2.5 c0-2.6-3.5-1.7-5.9-4.2c-2.6-2.6-8.2-1.4-11.3-0.2c-3.1,1.2-6.6-1.3-9.9,0.6c0,0-0.1,0-0.1,0.1c-0.7,0.9-1.7,2-2.9,3 c-2.2,1.8-1.6,3.6-2.4,4.1c0.8,0.3,1.6,0.7,2.3,1.1c2.5,1.7,4.9,0.2,5.8,1.5c0.3,0.4,0.2,1.8,0,3.5c0.5-0.4,0.8-0.6,1.6,0 c0.7,0.6,0.6,1.3,0.5,2l2-0.5C183.4,82.1,184.8,81.1,185,80.6z"/>
    <path d="M58.9,19.6c-1.4-0.2,0.1-3.3-1.3-4.7c-1.4-1.4-2.7-4.9-3.4-7.5c-0.7-2.6-4.3-5.2-5.9-8c-1.5-2.8-3.2-5-4.2-5.8 c0,0,0,0,0,0h-5c1.9,2.1,1.8,5.2,1.5,6.1c-0.4,1.1-4-0.7-4.2,0.4c-0.2,1.1,4.7,5.2,6.6,4.9c1.9-0.2,2.8,0.9,5.8,3.5 c2.9,2.6,2.7,5.6,1.5,6.6c-1.2,0.9,2.3,2.9,6.1,5.4c3.8,2.5,5.3,5.5,5.6,6.8c0.4,1.3,2,0.1,2.6-1.6c0.6-1.8-1.2-2.2-1.2-4.2 C63.3,19.5,60.3,19.8,58.9,19.6z"/>
    <path d="M180.4,35.3c-1.9-1.2-3.5-0.4-8.3,0.4c-4.8,0.7-7,2.7-6.8,6.1c0.2,3.4-1.6,1.9-1.5,4.8 c0.1,2.9-3.8,3.1-3.5,4.8c0.2,1.8-3.1,0-4-0.6c-0.9-0.6-11,2.5-12.4,2.7c-1.4,0.2-4-2.9-6-2.8c-2,0.1-2.8-2.9-3.1-5.4 c-0.2-2.5-4-4.7-5.6-6.9c-1.6-2.2-1.9-7.2-2-10.3c-0.1-3.2-0.5-8.6,1.8-14.8c0.3-0.8,0.4-1.6,0.5-2.2c-0.8-0.5-1.6-0.9-2.2-0.8 c-2,0.1-6.5-2.6-7.4-2.6c-0.9,0-0.8-2.1-1.5-3.3c-0.8-1.1-0.3-3.3-1.3-4c-1-0.7-3.7-3.4-4.8-6.7H51.4c0.8,0.5,1.8,1.7,2.7,2.8 c1.5,1.9,4.5,2,4.5,3.1c0,1.1,0.6,3.2,2.6,3.5c2,0.4,2.3,2.6,3.6,2.8C66,6.1,66.3,7.5,65.6,9c-0.7,1.5,0,2.8,3.3,4.1 c3.3,1.3,1.8,1.5,4.3,4c2.6,2.5,9.9,10.4,11.4,12.7c1.5,2.2,2,4.1,2.6,5.8c0.6,1.6-1.2,2.5-0.2,3.9c0.9,1.4-1.8,0.8-1.6,1.9 c0.1,1.1,1.6,6.3,4.2,6.6c2.6,0.2,5.5,3.4,7.6,5.2c2.1,1.8,5.3,1.4,8.5,2.6c3.2,1.2,5.9,4,10.4,5.3c4.6,1.3,9,3.3,12,5.2 c2.9,1.9,6.6,1.1,10.7-0.6c4.1-1.6,7.3,0.5,9.6,1.4c1.2,0.5,3.4,2.4,5.7,4.4c2.1-3,4.1-5.7,4.3-5.7c0.6-0.1,6.5,0.7,7-0.8 c0.6-1.5-4.4-4.8-3.9-5.1c0.6-0.3,0.8-4,1.7-4c0.9,0,9.2,0.2,9.6,0c0.5-0.2,2-3.2,3.4-3.3c0.6,0,1.6,0.7,2.5,1.5 c1.5-1.4,2.1-4.6,2.4-7.2c0.4-3.2-0.7-4.2,0.9-6c1.6-1.8,3.4-1.9,2.9-4.3C184.5,34.1,182.3,36.5,180.4,35.3z"/>
    <path d="M173.8,70.4c1.2-0.9,2.1-2,2.9-3c-1.8,1-2.4,0-2.1-1.3l-2.7,0.4l0.3-10.7c-2.1,0.1-8.1-0.1-8.9-0.1 c-0.9,0-1.1,3.6-1.7,4c-0.6,0.3,4.4,3.6,3.9,5.1c-0.6,1.5-6.5,0.7-7,0.8c-0.3,0.1-2.3,2.7-4.3,5.7c2.3,2.1,4.7,4.2,5.8,5 c2.2,1.4,5.9-0.1,7.4,1.3c0,0,0.1,0.1,0.2,0.1c1.6-1.5,3.2-3,3.8-3.1C172.3,74.3,171.4,72.3,173.8,70.4z"/>
    <path d="M172.9,55.8c-0.1,0-0.4,0.1-0.7,0.1l-0.3,10.7l2.7-0.4c0.2-0.9,0.8-2,1.7-2.7c2.1-1.6-1.1-8.2,1.4-8.8 c0.5-0.1,0.8-0.4,1.2-0.7c-0.9-0.8-1.9-1.6-2.5-1.5C174.9,52.6,173.3,55.6,172.9,55.8z"/>
    <path d="M257,43.6c-2.3,1.6,3.5,5.2,3.5,7.3c0,2.1-9.4-0.4-10.3,1.9c-0.5,1.2,3.3,2.8,6.8,1.6c3.3-1.1,5.5,0,7.3,1 c0.3-3.6,0.7-7.6,1-10.3C262.4,44.3,258.7,42.4,257,43.6z"/>
    <path d="M271.3,53.2c4.2-1.4,11,1.2,11-2.1c0-3.3-11.3-6.8-14.1-5.9c-0.8,0.3-1.8,0.1-2.9-0.2c-0.4,2.7-0.8,6.7-1,10.3 c0.1,0.1,0.3,0.1,0.4,0.2C266.6,56.5,267.1,54.6,271.3,53.2z"/>
    <path d="M193.5,93.1c1.2,0.6,4.1,0,5.2,0.9c0.6,0.4,1.5,0.4,2.6,0.3c-0.3-0.5-0.6-0.9-0.7-1.1 c-0.8-1.5,0.6-4.6,1.3-6.8c0.7-2.2-0.6-7.6,0.7-9c1.3-1.4,0.6-2.2,1.2-5.5c0-0.2,0-0.4,0-0.5c-2.6-0.1-5.3,2.4-6.2,2.5 c-1,0.1-4.6-0.8-5.1,1.1c-0.5,1.9-2.7,2.3-5.8,2.5c-3.1,0.2-1.5,2.8-1.7,3.3c-0.2,0.5-1.6,1.5-1.6,1.5l-2,0.5 c-0.1,0.7-0.1,1.5,0.8,2c1.9,1.1,4.5,5.2,6.5,6.2c1,0.5,1.6,1.3,1.8,2.1C191.7,92.8,192.9,92.8,193.5,93.1z"/>
    <path d="M364.7,337.3c3.3-2.4,2.5-3.8,4-6.6c1.5-2.8,0.2-4,2.8-6.5c2.6-2.5-0.5-4.1,2.8-5.6c3.3-1.5,2.8,1.4,0.1,4.8 c-2.7,3.4-3.2,4.3,0.4,1.8c3.5-2.6,4.8-6.2,6.8-10.3c2-4.1,3.5-5.4,5.3-5.6c1.8-0.2,1.8-4.6,1.5-7.6c-0.2-3.1-1.2-5.9,0.1-7.9 c1.3-2,0-3.9,1.6-3.9c1.6,0,4.1-2.5,6.7-5.1c2.6-2.6,4.2-2.8,6.9-3.1c2.7-0.2,1.2-1.2,2.9-1.6c1.8-0.5,2.9-2.1,4.1-3.2 c1.2-1.1,6,0.1,8.8,0.1c2.8,0,4.7,0.2,4.7-1.5c0-1.8,1.3-3.2,2.9-3.2c1.6,0,2.3-0.5,2.3-2.8c0-2.3,0.7-3.8,2.1-4.8 c1.4-1.1,1.6-3.4,2.1-4.9c0.5-1.5,2-0.6,2-2.8c0-2.2,0.8-4.7,0.8-6.5c0-1.8,1.9-1.5,2.7-2.8s-0.7-2.9,0.6-6.6c1.3-3.6,0-7,0-10.3 c0-3.3,0-6.7,1.2-7.8c1.2-1.1,0.6-1.6-0.4-2.1c-0.9-0.5,0.1-1.8,0.9-1.5c0.8,0.2,1.8,2,3.3,1.1c1.5-0.9,2.9-4.9,4.2-8.2 c1.3-3.3,3.4-3.2,5-3.9s5.2-4.7,7.4-10.5c2.2-5.8-0.1-11.4-1.1-15.4c-0.9-4-2.2-3.2-4.6-3.1c-2.3,0.1-6.8-0.5-12.7-6.8 c-5.9-6.3-11.6-5.9-15.5-4.8c-3.9,1.1-7.9-1.9-10.5-2.5c-2.6-0.6-5,2.7-6.9,3.4c-1.9,0.7,0.9-2.8,1.1-5c0.1-2.2-7-5.4-12.4-7.5 c-5.4-2.1-7.7-1.1-7.7,2.3c0,3.4-2.1-1.1-3.8,2.6c-1.6,3.6-4.7,1.3-2.7,0.1c2-1.2,3.9-3.9,4.6-6.1c0.7-2.2-7.7-4-10.7-2.8 c-2.9,1.2-1.1,5.4-3.4,4.1c-2.3-1.3-0.5-4.5,1.4-4.3c1.9,0.1,4-3.8,5.3-6.6c1.3-2.8-2.2-3.3-4.3-5.6c-2.1-2.3-1.7-9.1-3.8-10.2 c-2.3,2.3-5.4,5.8-6.3,8.4c-1.1,3.3-2.5,1.4-5.6,2.4c-3,1-4.5-0.3-5.2-1.6c-0.8-1.3-3.8,0-5.9-0.2c-2.1-0.2-0.8,2.5-2.2,3.3 c-1.4,0.8-5.1-1.6-6.4-0.2c-1.3,1.4-2.1,0-2.7,1.3c-0.6,1.3-2.9,0.5-3.5,1.3c-0.6,0.8-2.9,1.3-5.7-1.9c-2.9-3.2-2.4-8.4-1.1-9.4 c1.3-1,1.3-3.7-0.5-4.5c-1.8-0.8,0-4.1-2.2-4.4c-2.2-0.3-1.9,2.5-3.3,3c-1.4,0.5-4.9,2.9-6.5,2.5c-1.6-0.3-3.7,0.3-3.7,2.1 c0,1.8-1.7,1.3-2.1-0.2c-0.3-1.4-3.7-0.6-4.6-1.6c-1-1-5.4-0.5-3.5,0.6c1.9,1.1,2.1,2.2,2.1,4c0,1.7,1.4,1.3,1.4,3.3 c0,2.1,1.6,0.6,2.7,0.6c1.1,0,1.1,1.9-0.6,2.2c-1.7,0.3-2.5,1.3-3,2.9c-0.5,1.6-2.1,0.5-3.5,1.7c-1.4,1.3-2.7,2.5-3.7,1.9 c-1-0.6-1.7-0.2-2.9,0.5c-1.1,0.6-1.6,0-3.2-1.3c-1.2-1-1.9-3.2-4-5.3c-1.3,0.6-3.8,1.5-5.2,1.5c-1.9,0-7.7-0.4-8,0.6 c-0.3,1,0.4,2.7,1.4,2.9c1,0.2,3,0.8,1.1,2.2c-1.9,1.4-3.6-0.5-3.6,2.9s4.3,5.5,3.4,8.6c-0.5,1.6-1.1,5.7-1.1,7.2 c0,1.6-0.6,6.9-2,7.2c-1.4,0.3-2.7-1.2-4.5,0.3c-1.9,1.6-4.2,0.6-6.4,2.3c-2.2,1.7-4.5,1.1-4.7,3.1c-0.2,2-2.2,3.1-1.7,5 c0.5,1.9-0.9,1.4-2.3,2.8c-1.4,1.4,0.2,2.3-0.8,3.4c-0.9,1.1,0.3,2.8,1.4,4.5c1.1,1.7,2.3,3,2.2,4.5c-0.2,1.6,1.1,2.2,2.7,2 c1.6-0.2,0.3,3,2.8,3c2.5,0,5,0.6,5.6-0.8c0.6-1.4,2.3-2.5,2.3-0.5c0,2-0.5,7.5,1.3,6.9c1.7-0.6,5.2-0.5,6.9,0.2 c1.7,0.6,3.4,0,4.5-1.1c1.1-1.1,2.3-1.1,4.5-2.3c2.2-1.3,4.2-2.8,6.3-2.8c2,0,5.5-1.3,5,0.3c-0.5,1.6-0.8,7.4,1.7,10.3 c2.5,3,3.9,4.1,6.3,3.8c2.3-0.3,2,0.9,3.8,0.8c1.7-0.2,0.6,1.9,2.2,1.9c1.6,0,4.4,0.3,4.4,2c0,1.7,4.7,0.3,5.8,1.3 c1.1,0.9,2.3,1.7,2,3.6c-0.3,1.9,2.3,3.3,0.8,4.1c-1.6,0.8,0.5,2.3,0.6,4.4c0.2,2,2.3,2.8,5.8,2.7c3.4-0.2,4.4,0.2,4.4,2.7 c0,2.5,2.3,2.8,3.1,5.2c0.8,2.3-0.9,5-0.6,6.9c0.2,1.4-0.6,3-1.6,3.6c1.2,1.5,1.3,2.2,0.2,2.8c-1.4,0.8,1.7,3,1,6.5 c-0.8,3.5-1,4.1,2.7,4.3c3.7,0.2,3.3,1.3,4.6,0.5c1.3-0.8,3.2,2.7,3.7,4.5c0.5,1.7,1.9,5.9,2.5,5.9c0.6,0,2.5-1.9,4.5-1 c1.8,0.9-0.4,6.9-0.5,9.5c1.3,0,2.9,0,3.5,0.2c1,0.5,1.4,6.9,1,8.1c-0.5,1.2-4.4,2.3-6.4,3.6c-2,1.3-6.9,5.9-9.2,9.6 c-1.3,2.2-3.3,4-4.7,5.6c0.7,0.1,1.2,0.1,1.6-0.1c1.1-0.5,2.7-0.5,4.5,1.7c1.8,2.1,1.7,3.8,2.4,3.7c0.7-0.1,1.5-2.9,3-0.8 c1.4,2,5.1,3.6,5.9,4.5c0.8,0.9,3.6,1.7,3.6,4.2c0,1.8-0.8,5.2,0.6,8C362.9,338.9,363.7,338.1,364.7,337.3z"/>
    <path d="M361.7,331.8c0-2.5-2.7-3.2-3.6-4.2c-0.8-1-4.5-2.5-5.9-4.5c-1.4-2-2.3,0.7-3,0.8c-0.7,0.1-0.6-1.5-2.4-3.7 c-1.8-2.1-3.5-2.1-4.5-1.7c-0.4,0.2-0.9,0.2-1.6,0.1c-0.9,1.1-1.6,2.1-1.6,3c0,2.3-1.7,4.8-1.8,9c-0.1,4.3-1.3,3.6-1.4,6.9 c-0.1,3.3,1.1,2.7,1.5,3.2c0.3,0.3-0.1,1.3-0.4,2.2c0.5,0.4,1,1.1,2.1,1c2.1-0.2,4.2,0.6,6.8,1.8c2.6,1.2,1.6-0.4,4.1,0 c2.5,0.4,5.3,0.6,8-1.1c1.8-1.1,2.8-3.1,4.2-4.9C360.9,336.9,361.7,333.6,361.7,331.8z"/>
    <path d="M295,477.2c-2.9-0.1-8.7-5.5-10.5-6.9c-1.8-1.4-0.5-2.8-2.6-2.5c-2.1,0.3-0.7-1.6,0.5-2.2 c1.1-0.5-0.4-2.5-1.9-2.9c-0.2,3.2-0.8,17.3,0,17.4c0.9,0.1,7.1-0.7,8.9,0.5c0.7,0.2,1.7,0.8,2.4,0c1.2-1.3,4.7-0.6,6.6-1.8 C300.4,477.7,297.9,477.3,295,477.2z M360.1,291.8c-0.5-0.3-2.2-0.3-3.5-0.2c0,0.2,0,0.4,0,0.5c0.3,2.2-1.1,7.9-2.7,7.8 c-1.6-0.2-2.9,2.4-4.1,2.1c-1.3-0.3-3,1.9-4.6,1c-1.6-1-3.8,0.3-5.1-0.5c-1.3-0.8-4.9-0.2-4.9-1.1c0-1,1.8-0.6,1.8-3.5 c0-2.9,4.8-6,4.1-7.1c-0.6-1.1-8.7-3.5-9.9-4.9c-1.1-1.4-2.7-2.7-5.9-3c-3.2-0.3-3-1.9-5.9-3.7c-2.4-1.5-6.1-5.3-7.4-7.5 c-1.9-0.2-4.7-0.6-5.2,0c-0.8,0.9-2,5.3-3.1,3.1c-1.1-2.2-3.8-2.2-6.1-2.5c-2.3-0.3-2.2-2.5-4.7,0.2c-1.1,1.2-2.6,2.4-3.9,3.2 c-0.2,2.5-0.6,5.4-1.1,6.2c-0.6,1.1-5.9,3.5-6,4.8c-0.2,1.3,0.6,3-0.3,3.8c-1,0.8,2.2,4.8,0.5,5.7c-1.7,1,1.3,2.5,0.2,3.5 c-1.1,1-3.2,1.4-3.2,2.5c0,1.1-0.2,3.8-1.6,4.5c-1.4,0.6-2.4,3-2.4,4.8c0,1.7-2.2,0.6-1.4,2.9c0.8,2.2,1.7,4.9,0,5.4 c-1.8,0.5-1.3,4.1-2.2,4.1c-1,0-1.4,3.8,0,5.7c1.4,1.9,1.8,3.5,1.8,5.2c0,1.7,1.9,2.7,1.3,4.6c-0.6,1.9-0.3,3.7-1.4,4.4 c-1.1,0.8-0.2,3.2-1.6,3.8c-1.4,0.6,1.1,5.7,0,6.7c-1.1,1-4,1.8-4,5.2c0,3.5,0.5,5.5,0.2,7c-0.3,1.3,1.6,0.9,1.3,3 c-0.3,2.1-2.9,0.8-3,2.1c-0.2,1.3,0.6,3.8-0.3,4c-1,0.2-1.4,1.1-1.4,3.3c0,2.2-1.3,2.5-1.4,3.7c-0.2,1.1,1.1,2.4,1.1,3.7 c0,1.3,0.8,5.6-0.3,5.7c-1.1,0.2-1.7,4.9-0.8,5.6c1,0.6,1,1.9,0.5,2.9c-0.5,1,2.2,1.9,0.8,3.3c-1.4,1.4-0.3,3.3,1.6,2.7 c1.6-0.5,2.5,2.4,0.8,2.4c-1.7,0-3.5,0-2.1,1.1c1.4,1.1,2.9,2.7,0.8,3.5c-2.1,0.8-0.3,2.2-0.8,4.1c-0.5,1.9,1.4,3.7-0.2,4.1 c-1.6,0.5,0.6,3.3-1.6,3.7c-2.2,0.3-0.8,2.4-2.2,3.5c-1.4,1.1,1.9,3,0.2,4.1c-1.7,1.1-0.5,3.7-2.2,3.7c-1.8,0-2.7,2.4-2.9,3.5 c-0.2,1.1-1.3,3.3,0.2,4.9c1.4,1.6-0.3,2.9,1,3.5c1.3,0.6,5.6-0.3,4.9,1.6c-0.6,1.9-0.5,6,0.3,6c0.8,0,1.3,2.4,2.5,2.2 c1.3-0.2,7-0.8,9.4-0.2c1.2,0.3,2.2,1,2.9,1.6c1.4-0.6,4.3,1.3,5,0.7c0.8-0.8-2.9-3.9-2.8-4.9c0.1-1.1-0.6-2.8-0.6-4 c0-1.2-0.6-3.8,1.1-4.9c1.6-1.2,1.8-2.3,2.8-2.1c1.1,0.2,3.2-0.9,3.3-3.8c0.1-2.8,1.4-3.9,3.8-5.9c2.6-2.2,6.8-4.2,6.2-5.2 c-0.6-0.9,0.9-4,0.9-5.2c0-1.2-4-0.9-5.3-1.4c-1.3-0.5-6-3.8-3.6-8.1c2.3-4.3,7.3-4.8,8.7-4.9c1.4-0.1,0.1-2.1,1.3-2.8 c1.2-0.7,1.4-1.9,1.4-3.6c0-2,0-5.2,2.1-5.4c2.1-0.2,2.7-1.4,1.4-1.8c-1.3-0.4-1.9-1.9,0.2-2.1c2.1-0.2,1.4,1.8,2.9,1.8 c1.5,0,4.1-2.6,2.1-4.1c-2-1.5-2.6,0.7-3.6,0.9c-1.1,0.2-1.9-1.4-2.9-1.4c-1.1,0-0.4-2.9-0.8-4c-0.5-1.1-1.2-3.6-0.2-4.9 c0.9-1.3,4.9,2,8.5,2.2c3.5,0.2,6.1-1.8,6.1-3.1c0-1.3-1.6-3.6,0.5-5c2.1-1.4,0.4-1.9-0.2-3.8c-0.6-1.9,0.9-3.1,1.9-2.1 c0.9,0.9,7.9,0.4,13.6-0.8c5.8-1.2,9.7-3.3,10.1-4.9c0.4-1.6,4-5.5,4.8-6.9c0.8-1.4,0.1-3.2-2.2-3.5c-2.3-0.3-2.2-3.1-0.9-4.6 c1.3-1.5-0.7-2.9-2.9-3.2c-2.2-0.2-5.8-1.8-3.8-3.6c1-0.9,1.4-0.7,1.9-0.3c0.3-0.9,0.7-2,0.4-2.2c-0.5-0.5-1.7,0.1-1.5-3.2 c0.1-3.3,1.3-2.6,1.4-6.9c0.1-4.3,1.8-6.8,1.8-9c0-2.3,4-4.9,6.3-8.6c2.3-3.7,7.1-8.3,9.2-9.6c2-1.3,5.9-2.4,6.4-3.6 C361.5,298.7,361,292.3,360.1,291.8z"/>
    <path d="M264.2,458.4c-1.3,0.2-1.7-2.2-2.5-2.2c-0.8,0-1-4.1-0.3-6c0.6-1.9-3.7-1-4.9-1.6c-1.3-0.6,0.5-1.9-1-3.5 c-1.4-1.6-0.3-3.8-0.2-4.9c0.2-1.1,1.1-3.5,2.9-3.5c1.7,0,0.5-2.5,2.2-3.7c1.8-1.1-1.6-3-0.2-4.1c1.4-1.1,0-3.2,2.2-3.5 c2.2-0.3,0-3.2,1.6-3.7c1.6-0.5-0.3-2.2,0.2-4.1c0.5-1.9-1.3-3.3,0.8-4.1c2.1-0.8,0.6-2.4-0.8-3.5c-1.4-1.1,0.3-1.1,2.1-1.1 c1.7,0,0.8-2.9-0.8-2.4c-1.9,0.6-3-1.3-1.6-2.7c1.4-1.4-1.3-2.4-0.8-3.3c0.5-1,0.5-2.2-0.5-2.9c-1-0.6-0.3-5.4,0.8-5.6 c1.1-0.2,0.3-4.4,0.3-5.7c0-1.3-1.3-2.5-1.1-3.7c0.2-1.1,1.4-1.4,1.4-3.7c0-2.2,0.5-3.2,1.4-3.3c1-0.2,0.2-2.7,0.3-4 c0.2-1.3,2.7,0,3-2.1c0.3-2.1-1.6-1.7-1.3-3c0.4-1.5-0.2-3.5-0.2-7c0-3.5,2.9-4.3,4-5.2c1.1-1-1.4-6,0-6.7c1.4-0.6,0.5-3,1.6-3.8 c1.1-0.8,0.8-2.5,1.4-4.4c0.6-1.9-1.3-2.9-1.3-4.6c0-1.8-0.3-3.3-1.8-5.2c-1.4-1.9-1-5.7,0-5.7c1,0,0.5-3.7,2.2-4.1 c1.7-0.5,0.8-3.2,0-5.4c-0.8-2.2,1.4-1.1,1.4-2.9c0-1.7,1-4.1,2.4-4.8c1.4-0.6,1.6-3.3,1.6-4.5c0-1.1,2.1-1.6,3.2-2.5 c1.1-1-1.9-2.5-0.2-3.5c1.7-1-1.4-4.9-0.5-5.7c1-0.8,0.2-2.5,0.3-3.8c0.2-1.3,5.4-3.7,6-4.8c0.5-0.8,0.9-3.7,1.1-6.2 c-1.6,1.1-3.1,1.6-3.3,1c-0.5-1.1,0.2-4.4-1.3-5.8c-1.4-1.4-0.5-4.2-1.9-4.9c-1.4-0.6-3.1-3.4-1.9-4.4c1.3-0.9,0-2.8,1.1-3.8 c1.1-0.9-0.6-1.1-2.2-3c-1.6-1.9,0.6-4.2-1.3-5.6c-1.9-1.4-1.9-3.1-2.3-2.3c-0.5,0.8-0.6,3.4-2.2,4.2c-0.3,0.1-0.7,0.4-1.2,0.8 c0,1.3-0.5,3.5,0.1,4.8c0.7,1.8,1.1,10.3,0.4,13.6c-0.7,3.3-1.4,6-2.1,8c-0.7,2,1.6,2.1,0.7,3.1c-0.9,0.9-0.6,3.3-0.6,7 c0,3.8-2.2,10.1-2.3,12.1c-0.1,2-1.6,3.3-1.4,5.5c0.2,2.2-1.1,3.5-2.3,4.6c-1.3,1.1,2.1,4.5,2,6.3c-0.1,1.9-2.6,2.7-2,5.8 c0.7,3.8,0,10.3,0,11.6c0,1.3-1.5,1.2-1.2,3.6c0.4,2.5-1.5,3.1-1.9,6.6c-0.4,3.5-3.1,8.6-4.1,11.3c-1.1,2.7-1.1,4.2-2.5,4.2 c-1.4,0-1.8,1.5-0.7,3.9c1.1,2.3-0.7,4.3,0.7,6.7c1.4,2.3,0.9,3.2,0.2,5.4c-0.7,2.2-1.6,2.3-1.6,4.5c0,2.1-1.6,3.9-0.7,6.2 c0.9,2.4,0.7,3.2-0.5,3.2c-1.2,0-1.8,1.9-2.2,5.8c-0.5,3.9-0.4,3.8,2.5,3.5c2.8-0.2,0.6-9.5,2.3-9.5c1.8,0,0.2-1.5,2-2 c1.8-0.5,0.2,1.6,1.4,2c1.2,0.4,2,1.3,0.4,2.3c-1.6,1.1,0.4,3.2-0.5,4.5c-0.8,1.3-2,2.7-1.3,4.2c0.7,1.5-0.8,1.4-0.9,3.4 c-0.1,2,1.1,2.1,0.2,2.6c-0.8,0.5,1.1,2-0.1,2.2c-1.2,0.2-0.5,1.8,0.2,3.2c0.7,1.4-1.5,0.6-2.7,1.5c-1.2,0.9,1.2,2.2,0.5,3.5 c-0.7,1.3-2.6-0.7-3.4-1.4c-0.8-0.7,1.3-2.1,2.3-3.5c1.1-1.4-1.1-4.6-2.8-3.9c-1.8,0.7,1.8,2.7,1.8,4.2c0,1.5-2.9-0.4-2.8,1.3 c0.1,1.6-2,1.1-3.1,2.2c-1.1,1.2,1.4,2.2,0.2,2.6c-1.2,0.3-3.2,2-3.3,3.2c-0.1,1.2,1.3,1.4,1.3,0.2c0-1.2,1.9-1.5,2.5,0 c0.6,1.5,1.4,0,3.1,0.4c1.6,0.4,1.4,2.8,0.5,2.7c-0.9-0.1-1.9,1.5-1.6,3.3c0.2,1.8,3.5,0,4.9,0.5c1.4,0.5,0.9,2.9,0.1,2.1 c-0.8-0.8-2.7-2.2-3.5-0.8c-0.8,1.4-2.1,0.7-3.2,0.2c-1.1-0.5-4.8,2-3.5,2.9c1.3,0.9,1.2,2.5,2,2.3c0.8-0.1,2.1-0.7,2.6-1.6 c0.5-0.9,2.1-1.9,2.2,0.2c0.1,2.1-2.2,1.1-2.7,2.2c-0.5,1.2-1.4,2.1-2.8,3.2c-1.4,1.1,0,2.8,1.2,2.2c1.2-0.6-0.4,1.4,1.3,1.6 c1.5,0.2,2-0.9,1.6-2.1c-0.4-1.2,0.8-3.8,2.2-2.5c1.4,1.3-0.7,2.6-0.7,3.8c0,1.2-0.8,2.7-0.8,4c0,1.3-1.5,0.6-1.4,2 c0.1,1.4-3.3,0.5-1.8,1.4c1.5,0.9-0.9,2.2-0.1,3.2c0.8,0.9,1.5-1.3,2.8-0.8c1.3,0.5,1.1,0.8,2.7,0.1c1.6-0.7,2.6,1.3,1.1,1.8 c-1.5,0.5-3.2,2.2-2.5,2.5c0.7,0.2,2.7-1.2,3.2,0.3c0.5,1.5,1.6,1.1,1.8-0.6c0.1-1.6,2.9-0.2,3.4,1.2c0.5,1.4-2.9,2.2-4.7,1.9 c-1.8-0.4-2.7,1.6-1.5,3.2c1.2,1.5,2.6,0,3.9-1.3c1.3-1.3,7.6-0.9,8.1,0.5c0.5,1.4-2.9,0.2-3.3,1.1c-0.4,0.8-2.9,1.5-3.3,0.6 c-0.4-0.9-2.8,0.4-2.9,1.9c-0.1,1.5-2,1.5,0.1,2.1c2.1,0.6,1.5-2.2,4.8-2c3.3,0.2,5-3.1,6-1.2c0.9,1.9-2.7,3.4-4,2.2 c-1.3-1.2-2.8,0.8-2.7,2.6c0.1,1.8-3.8-0.5-5.6-0.7c-1.9-0.2-1.1,1.8,0.6,3.5c1.6,1.8,2.6-0.2,4.6,1.1c2,1.3,2,2.7,3.4,1.4 c1.4-1.3,0-1.2-0.9-1.8c-0.9-0.6-0.1-2.6,2.1-1.5c2.2,1.1,4.8-0.9,4.1-3.8c-0.7-2.8,2-4.1,4.7-5.1c2.7-0.9,1.3,1.8-0.7,2.6 c-2,0.8-2.3,1.4-0.8,3.1c1.5,1.6,3.5-1.1,4.8,0.2c1.3,1.3-2.3,1.1-2.9,2.4c-0.6,1.3,2.2,2.8,0.2,3.8c-2,0.9-1.1-3.9-2.2-4.3 c-1.2-0.5-2.2,0.6-1.1,3.3c1.2,2.7-1.4,0.3-2.6-0.9c-1.2-1.3-2.8,0.6-1.4,2c1.4,1.4-2.7-0.1-2.7,2.1s1.8,0.4,3.9,0.8 c2.1,0.5,1.2,3.5,2.7,4.7c1.5,1.2,0.2-3.8,1.9-4.1c1.6-0.4,0.1,3.8,3.8,4.9c3.6,1.2,0.2-0.7,1.9-1.9c1.6-1.2,3.8,3.5,5.5,4 c1.8,0.5,0.6-2.1-0.7-3.5c-1.3-1.4,1.3-0.6,3.1,0c1.8,0.6,3.2,0.8,3.5-0.5c0.1-0.5,0.5-0.5,0.9-0.3c-1.8-1.2-8.1-0.3-8.9-0.5 c-0.8-0.1-0.2-14.2,0-17.4c-0.1,0-0.3-0.1-0.4-0.1c-1.5,0-4.9,0.4-4.3-2c0.1-0.4,0.3-0.7,0.6-0.8c-0.7-0.6-1.7-1.3-2.9-1.6 C271.2,457.6,265.5,458.2,264.2,458.4z"/>
    <path d="M357.1,282.1c-1.9-1-3.8,1-4.5,1c-0.6,0-2.1-4.1-2.5-5.9c-0.5-1.8-2.4-5.2-3.7-4.5c-1.3,0.8-1-0.3-4.6-0.5 c-3.7-0.2-3.5-0.8-2.7-4.3c0.8-3.5-2.4-5.7-1-6.5c1.1-0.6,1-1.3-0.2-2.8c-0.3,0.2-0.6,0.3-0.9,0.3c-1.3,0-2.8-2.2-5-2.2 c-2.2,0-4.5-0.2-6.1,0.6c-1.6,0.8-4.5-0.2-6.4,1.1c-1.9,1.3-4.2,3.9-4.1,5c0.2,1.1-0.6,7.8-1.6,8.1c-0.3,0.1-1,0-1.8,0 c1.3,2.2,5,6.1,7.4,7.5c2.9,1.8,2.7,3.3,5.9,3.7c3.2,0.3,4.8,1.6,5.9,3c1.1,1.4,9.2,3.8,9.9,4.9c0.6,1.1-4.1,4.3-4.1,7.1 c0,2.9-1.8,2.5-1.8,3.5c0,1,3.7,0.3,4.9,1.1c1.3,0.8,3.5-0.5,5.1,0.5c1.6,1,3.3-1.3,4.6-1c1.3,0.3,2.5-2.2,4.1-2.1 c1.6,0.2,3-5.6,2.7-7.8C356.3,289.9,359,283,357.1,282.1z"/>
    <path d="M205.8,104.1c-0.2-0.6-0.1-2.2,0.8-3.4c-1.9-2.1-4.1-4.9-5.2-6.5c-1.1,0.1-2.1,0.1-2.6-0.3 c-1.2-0.9-4.1-0.3-5.2-0.9c-0.6-0.3-1.8-0.3-2.9-0.2c0.3,0.9,0.1,1.7-0.4,2.1c-1.1,0.7-1.2,3.5,1.4,4.6c2.6,1.1,1.8-0.6,3.1-0.6 c1.3,0,1.2,2,2.3,2c1.2,0,3.9,1.4,3.8,3.3c-0.1,1.9,0.9,2.7,3.1,2.7c0.4,0,0.8,0,1.3,0.1C205.4,105.8,205.9,104.8,205.8,104.1z"/>
    <path d="M232.6,104.2c-1.9-2.8-5.3-2.6-7.4-3.5c-2.1-0.9-4.8,0.4-7.5,2.8c-2.7,2.5-6.1,1.1-8.5-0.2 c-0.7-0.4-1.7-1.3-2.7-2.4c-0.9,1.2-1,2.8-0.8,3.4c0.2,0.7-0.3,1.7-0.7,2.9c2.3,0.3,5.3,1.3,6.8,3.1c1.8,2.1,2.8,0.7,3.9,2.6 c1.1,1.9,3.5,0.1,4.1-1.1c0.6-1.2-1.3-1.6-1.5-2.9c-0.2-1.3,2.3-0.8,2.8-2.6c0.5-1.8,4.2-2.6,5.9-1.9c1.6,0.7,3.1,1.9,1.5,3.6 c-1.1,1.3,1.2,3.7,3.1,5.5c1.4-1.4,2.9-3,3.6-3.5c0.4-0.3,0.6-0.9,0.7-1.7C235,107.9,234,106.1,232.6,104.2z"/>
    <path d="M235.9,150.2c1.5,0.9,3.5,0.6,4,0c0.5-0.6,1.8,0.7,3.8,2.9c0.1,0.1,0.2,0.2,0.2,0.3c1.6-0.4,3.7-0.7,4.6-0.1 c1.5,0.9,1.1,4.2,3.1,4.4c2,0.2,3.5,2.2,3.3,3.3c-0.2,1.1,2.2,1.7,2,3.3c-0.2,1.7,5.3,1.3,6.1,0.7c0.7-0.6,2.2-0.9,3.1-0.4 c0.9,0.6,2.6-0.6,3.5-0.2c0.9,0.4,4.6,1.8,3.9,3.1c-0.7,1.3-3.3,3.3-2.8,4.4c0.4,0.9,2.4,1.4,3.2,2.5c0.1,0,0.2,0,0.3,0 c1.4-0.3,2-5.6,2-7.2c0-1.6,0.6-5.6,1.1-7.2c0.9-3.1-3.4-5.2-3.4-8.6s1.7-1.5,3.6-2.9c1.9-1.4-0.1-2-1.1-2.2 c-1-0.2-1.7-1.9-1.4-2.9c0.3-1,6.1-0.6,8-0.6c1.9,0,5.9-1.7,5.9-2c0.1-0.3,0.5-1.6-1-2.7c-1.4-1.1-0.9-2.7,0.2-4 c1.1-1.3-0.7-2.5-2.1-4.1c-1.4-1.5-0.3-7.1,1.3-9.7c1.6-2.6-3.2-2-6.2-1.6c-3,0.4-5.5-0.8-7.4-3.2c-1.9-2.4-4.5-0.9-9.1-0.8 c-4.6,0.1-3.7-5-3.4-7c0.2-2-2.3-2.2-2.3-3.5c0-1.3-1.3-1.3-2.5-1.2c-1.2,0.1,0-1.4,0.8-2.4c0.8-1,0.7-1.8,0.8-3.9 c0.1-2.1,3.1-3.9,4.7-6c0.4-0.5,1-0.8,1.6-1c0.2-0.5,0.6-0.9,1.3-1c2.3-0.5,3.5-2,1.3-3.3c-2.2-1.3-3.5,2.5-6,2.8 c-2.5,0.4-2.9,1.9-4.6,2.7c-1.6,0.8-4.7,0.1-4.8,1.5c-0.1,1.5-1.1,0-2.5-0.4c-1.4-0.4-5,2.8-4.9,4.6c0.1,1.8,0.7,3.4-1.9,5 c-2.6,1.6-4.1,4.7-5.3,6.1c-0.4,0.4-0.7,0.5-1.2,0.3c-0.2,0.8-0.4,1.4-0.7,1.7c-0.6,0.5-2.2,2.1-3.6,3.5c0.7,0.6,1.3,1.2,1.7,1.7 c1.6,1.8,0.6,3.2,1.1,4.1c0.5,0.9,0.9,2.3,0,2.9c-0.9,0.6-0.1,7,0.9,8.2c1.1,1.2,0,2.2-1.2,4.6c-1.2,2.3-2.2,3.4-4.3,3.5 c-2.1,0.1-2,3.4-2.7,3.4c-0.6,0-1,1.2-1.1,2.2c2,1.7,5.5,3.7,6.5,3.7C233.7,147.7,234.5,149.3,235.9,150.2z"/>
    <path d="M340.2,248.1c-0.8-2.3-3.1-2.7-3.1-5.2c0-2.5-0.9-2.8-4.4-2.7c-3.4,0.2-5.6-0.6-5.8-2.7 c-0.2-2-2.2-3.6-0.6-4.4c1.6-0.8-1.1-2.2-0.8-4.1c0.3-1.9-0.9-2.7-2-3.6c-1.1-0.9-5.8,0.5-5.8-1.3c0-1.7-2.8-2-4.4-2 c-1.6,0-0.5-2-2.2-1.9c-1.7,0.2-1.4-1.1-3.8-0.8c-2.3,0.3-3.8-0.8-6.3-3.8c-2.5-3-2.2-8.8-1.7-10.3c0.5-1.6-3-0.3-5-0.3 c-2,0-4.1,1.6-6.3,2.8c-2.2,1.3-3.4,1.2-4.5,2.3c-1.1,1.1-2.8,1.7-4.5,1.1c-0.5-0.2-1.1-0.3-1.8-0.4c0.9,2.3,3.2,6.1,3.7,7.4 c0.6,1.7-0.8,2.2-1.4,2.8c-0.6,0.6,0.3,6.3,0.5,7.5c0.2,1.3-2.2,3.6-1.3,4.4c0.9,0.8-1.2,3.1-1.2,4.5c0,1.4,2,1.4,2,2.5 c0,1.1-1.7,3.6-2.8,4.2c-0.6,0.3-0.6,1.2-0.4,2.2c0.3-0.1,0.6,1.3,2.2,2.5c1.9,1.4-0.3,3.8,1.3,5.6c1.6,1.9,3.3,2,2.2,3 c-1.1,0.9,0.2,2.8-1.1,3.8c-1.3,0.9,0.5,3.8,1.9,4.4c1.4,0.6,0.5,3.4,1.9,4.9c1.4,1.4,0.8,4.7,1.3,5.8c0.5,1.1,4.7-1.6,7.2-4.2 c2.5-2.7,2.3-0.5,4.7-0.2c2.3,0.3,5,0.3,6.1,2.5c1.1,2.2,2.3-2.2,3.1-3.1c0.8-0.9,6.1,0.3,7,0c0.9-0.3,1.7-7,1.6-8.1 c-0.2-1.1,2.2-3.8,4.1-5c1.9-1.3,4.9-0.3,6.4-1.1c1.6-0.8,3.9-0.6,6.1-0.6c2.2,0,3.8,2.2,5,2.2c1.2,0,2.8-2,2.5-3.9 C339.2,253.1,340.9,250.5,340.2,248.1z"/>
    <path d="M276,246.9c0.1-0.1,0.1-0.2,0.2-0.2c-0.1-1-0.1-1.8,0.4-2.2c1.1-0.6,2.8-3.1,2.8-4.2c0-1.1-2-1.1-2-2.5 c0-1.4,2.2-3.8,1.2-4.5c-0.9-0.8,1.4-3.1,1.3-4.4c-0.2-1.3-1.1-6.9-0.5-7.5c0.6-0.6,2-1.1,1.4-2.8c-0.5-1.4-2.7-5.1-3.7-7.4 c-1.7-0.2-3.9-0.2-5.1,0.2c-1.7,0.6-1.3-4.9-1.3-6.9c0-2-1.7-0.9-2.3,0.5c-0.6,1.4-3.1,0.8-5.6,0.8c-2.5,0-1.3-3.1-2.8-3 c-1.6,0.2-2.8-0.5-2.7-2c0.2-1.6-1.1-2.8-2.2-4.5c-1.1-1.7-2.3-3.4-1.4-4.5c0.9-1.1-0.6-2,0.8-3.4c1.4-1.4,2.8-0.9,2.3-2.8 c-0.5-1.9,1.6-3,1.7-5c0.2-2,2.5-1.4,4.7-3.1c2.2-1.7,4.5-0.8,6.4-2.3c1.8-1.5,3-0.2,4.3-0.3c-0.8-1.1-2.7-1.6-3.2-2.5 c-0.6-1.1,2-3.1,2.8-4.4c0.7-1.3-2.9-2.8-3.9-3.1c-0.9-0.4-2.6,0.7-3.5,0.2c-0.9-0.6-2.4-0.2-3.1,0.4c-0.7,0.6-6.3,0.9-6.1-0.7 c0.2-1.7-2.2-2.2-2-3.3c0.2-1.1-1.3-3.1-3.3-3.3c-2-0.2-1.7-3.5-3.1-4.4c-0.8-0.5-2.9-0.2-4.6,0.1c1.8,2,2.4,2.8,1.2,3.8 c-1.6,1.2,0,1.5-2.9,5.4c-2.9,3.9-8,4.9-10.4,5.6c-2.4,0.7-3.4,5.3-4.8,8.4c-1.3,3.2-2.4,2.1-3.8,0.2c-1.3-1.8-2.4,0.4-4-1.1 c-1.6-1.5-0.9-1.5,0-2.7c0.5-0.7-0.1-1.7-1-2.7c-1.7,0.4-3.5,2.8-4.4,4.6c-0.9,2,1.6,5.9,2,7.3c0.4,1.4-1.4,0.1-1.6,1.4 c-0.2,1.3,3.9,3.2,5.8,4.6c1.9,1.4,3.5,5.4,5.3,7.3c1.8,1.9,1.9,3.5,3.8,8.1c1.9,4.6,5.6,12.3,8.2,15.6c2.6,3.3,3.8,5.9,3.2,6.8 c-0.6,0.9,0.1,3.5,2,4.8c1.9,1.3,3.4,3.4,8.3,5.9c4.9,2.5,14,7.2,15.3,9.4c1.3,2.2,5.5,4.3,6.3,4.8c0.2,0.1,0.3,0.5,0.3,1 c0.5-0.4,0.9-0.7,1.2-0.8C275.4,250.3,275.5,247.6,276,246.9z"/>
    <path d="M262.9,90.9c-1.5,2.1-4.6,3.9-4.7,6c-0.1,2.1,0,2.9-0.8,3.9c-0.8,1-2,2.5-0.8,2.4c1.2-0.1,2.5-0.1,2.5,1.2 c0,1.3,2.5,1.5,2.3,3.5c-0.2,2-1.1,7.1,3.4,7c4.6-0.1,7.1-1.6,9.1,0.8c1.9,2.4,4.4,3.6,7.4,3.2c3-0.4,7.8-1,6.2,1.6 c-1.6,2.6-2.6,8.2-1.3,9.7c1.4,1.5,3.2,2.8,2.1,4.1c-1.1,1.3-1.6,2.9-0.2,4c1.4,1.1,1,2.4,1,2.7c0,0.1-0.3,0.2-0.7,0.4 c2.1,2.1,2.9,4.4,4,5.3c1.6,1.3,2.1,1.9,3.2,1.3c1.1-0.6,1.9-1.1,2.9-0.5c1,0.6,2.2-0.6,3.7-1.9c1.4-1.3,3-0.2,3.5-1.7 c0.5-1.6,1.3-2.5,3-2.9c1.7-0.3,1.7-2.2,0.6-2.2c-1.1,0-2.7,1.4-2.7-0.6c0-2.1-1.4-1.6-1.4-3.3c0-1.7-0.2-2.9-2.1-4 c-1.9-1.1,2.5-1.6,3.5-0.6c1,1,4.3,0.2,4.6,1.6c0.3,1.4,2.1,1.9,2.1,0.2c0-1.7,2.1-2.4,3.7-2.1c1.6,0.3,5.1-2.1,6.5-2.5 c0.7-0.2,1-1.1,1.4-1.9c-1-1.4-2.7-3.6-3.5-4.3c-1.1-0.9,0.8-1.5,0.6-2.8c-0.2-1.3,0-2.3,2.5-2.5c2.5-0.2,2.1-2.1,0.8-2.9 c-1.3-0.8,0.6-2.9,1.9-3.6c0.5-0.3,1.3-1.2,1.9-2.5c-2.5-1-6.2-0.9-7.7-0.8c-2,0.1,1.3-2.2,1.4-4.3c0.1-2.1-5.6-2.5-7.9-2.9 c-2.2-0.5-1.6-2.8,0.7-2.9c2.3-0.1-1.3-1.8-4.5-1.3c-3.2,0.5-7.6,2.2-10.2,3.6c-2.6,1.4-7-4.1-10-2.9c-2.9,1.2-7,1.2-6.9-1.2 c0.1-2.3-1.2-4.3-4.1-4.1c-2.9,0.2-2.2-2.9-4.5-2.9c-2.2,0,0,2.7-1.5,3.4c-1.5,0.7-6.8,2-7.2,4.1c-0.4,2.1,2.8,5.6,1.8,7.7 c-1.1,2.1-4.6,0.4-5.6-1.9c-1.1-2.2,3.1-5.6,2.3-6.9c-0.5-0.9-1.1-2.6-0.7-3.7C263.8,90.1,263.2,90.4,262.9,90.9z"/>
    <path d="M343.2,123.5c0.8,1.5-0.9,2.3-2.5,2.5c-1.5,0.2-1.1,3.6-2.1,4.6c-1,1,3.6,3.4,4.4,5.5c0.5,1.2,2,3.9,3.1,5.9 c1.1,0.3,2.1,0.5,2.7,0.2c1.4-0.8,0.2-3.5,2.2-3.3c2.1,0.2,5.1-1.1,5.9,0.2c0.1,0.2,0.3,0.5,0.5,0.7c0.7-1,1.4-2.1,1.6-2.5 c0.4-0.8,0.4-4.8-0.6-7c-1-2.3-0.2-5.3,1-6.3c0.2-0.2,0.6-1.2,1-2.7c-1.9-0.7-3.7-1.4-5.3-1.2c-2.8,0.4-5.8,1.6-6.8,0.1 c-1.1-1.5-2.6-1.3-4-0.1c-0.2,0.1-0.3,0.2-0.5,0.1C343.3,121.5,342.8,122.8,343.2,123.5z"/>
    <path d="M327,109.5c-1.3,0.8-3.2,2.9-1.9,3.6c1.3,0.8,1.7,2.7-0.8,2.9c-2.5,0.2-2.7,1.1-2.5,2.5 c0.2,1.3-1.7,1.9-0.6,2.8c0.8,0.6,2.4,2.8,3.5,4.3c0.4-0.7,0.8-1.3,1.9-1.1c2.2,0.3,0.5,3.7,2.2,4.4c1.7,0.8,1.7,3.5,0.5,4.5 c-1.3,1-1.7,6.2,1.1,9.4c2.9,3.2,5.1,2.7,5.7,1.9c0.6-0.8,2.9,0,3.5-1.3c0.6-1.3,1.4,0.2,2.7-1.3c0.7-0.8,2.3-0.4,3.7,0 c-1.2-2-2.7-4.7-3.1-5.9c-0.8-2.1-5.3-4.6-4.4-5.5c1-0.9,0.6-4.4,2.1-4.6c1.5-0.2,3.2-1,2.5-2.5c-0.4-0.8,0.1-2,0.6-3.4 c-1.5-0.1-3.6-4.4-4.9-4.4c-1.4,0-3.1-1.2-2.7-3.2c0.4-2-3.3-2.2-5.3-4.5c-0.5-0.5-1.2-0.9-1.9-1.2 C328.3,108.2,327.6,109.2,327,109.5z"/>
    <path d="M358.4,130.2c1,2.3,1,6.3,0.6,7c-0.2,0.4-0.9,1.5-1.6,2.5c0.9,1,2.3,1.7,4.7,0.9c3-1,4.5,1,5.6-2.4 c0.9-2.6,4-6.2,6.3-8.4c0,0,0,0-0.1,0c-2.2-0.9-5.6-6.3-9-7c-1.5-0.3-3-0.9-4.5-1.5c-0.4,1.5-0.8,2.5-1,2.7 C358.2,124.9,357.5,127.9,358.4,130.2z"/>
    <path d="M241.2,37c-3.5,0-15-8-25.6-10.3c-10.6-2.3-19.8,5.2-18.8,6.6c1.4,1.9,6.6-2.3,9.2-4.2 c2.6-1.9,4.9,0.9,5.2,2.1c0.2,1.2,3.5,1.9,8.9,2.1c5.4,0.2,6.1,4.7,11.3,5.9c5.2,1.2,0,3.3,2.6,4.2c2.6,0.9,16.2,0.7,17.1-0.5 C252,41.7,244.7,37,241.2,37z"/>
    <path d="M229.2,53.2c0.9,1.6,9.9,4,10.8,1.9C241,53,228.1,51.2,229.2,53.2z"/>
    <path d="M289.6,53.7c2.1,3.3,8.2,1.3,8.7,0C299.2,51.3,287.5,50.4,289.6,53.7z"/>
    <path d="M338.9,455.2c-1.9-3.5-10.6,3.1-8.7,4C332.1,460.2,339.8,456.9,338.9,455.2z M329.3,452.7 c-2.6-0.5-8.8,4.8-6.1,6.1C326,460.2,331.9,453.1,329.3,452.7z"/>
    <path d="M243.8,153.1c-2-2.2-3.3-3.6-3.8-2.9c-0.5,0.6-2.6,0.9-4,0c-1.5-0.9-2.2-2.4-3.3-2.4c-1,0-4.6-2-6.5-3.7 c0,0.3,0,0.5,0,0.7c0.1,1.1-1.6,1.8-3.6,1.9c-2,0.1-1.8,2.3-1.8,3.9c0,1.5-1.6,1.5-2.3,3.2c-0.7,1.6,0.2,2-1.4,2.8 c-1.6,0.8-2.1,2.2-1.2,3.6c0.9,1.4-0.1,2.7-0.4,3.5c-0.2,0.8,1.4,1.2,3.1,2.7c1.6,1.5,1.9-0.6,2.6,0.6c0.7,1.2-0.5,3.3-2.3,3.3 c-0.1,0-0.3,0-0.4,0.1c1,1,1.5,2.1,1,2.7c-0.9,1.2-1.6,1.2,0,2.7c1.6,1.5,2.7-0.7,4,1.1c1.3,1.8,2.4,2.9,3.8-0.2 c1.3-3.2,2.3-7.7,4.8-8.4c2.4-0.7,7.5-1.7,10.4-5.6c2.9-3.9,1.4-4.1,2.9-5.4C246.4,156.2,245.7,155.3,243.8,153.1z M160.2,151.6 c-2.3,3.5,2.3,7,3.3,5.4C164.7,155.1,162.6,148.1,160.2,151.6z"/>
    <path d="M112.1-6.4c1.1,3.3,3.9,6,4.8,6.7c1,0.8,0.5,2.9,1.3,4c0.8,1.1,0.6,3.3,1.5,3.3c0.9,0,5.4,2.8,7.4,2.6 c0.6,0,1.4,0.3,2.2,0.8c0.2-4.2-4.1-4.9-1.5-6.8c2.9-2.2-0.1-4.1,1.3-5.1c1.4-0.9,3.9-1.9,3.9-3.3c0-1.4,1.3-1.4,3.2-1.2 c0.8,0.1,1.8-0.4,2.7-1.1H112.1z"/>
    <path d="M216.4-6.4h-10c0.5,1.8-1.4,3.7-0.5,4.9c1.1,1.5-0.1,3.6,2.2,5.3c2.3,1.6,0.2,5,2.1,5.5 c1.9,0.5,3.4,3.4,3.6,4.6c0.2,1.2,3.8,2.7,4,0.7c0.2-2,2.1-4.3,2.3-6.2c0.2-1.9-1.4-8.6-2.9-10.7C216.1-4,217.3-4.7,216.4-6.4z"/>
    <path d="M233.7,22.5c-0.3,0.7-2.1-0.9-2.1-2.1c0-1.2-1.8-1.4-1.8-3.6c0-2.1,0.9-3.4,1.9-1.5c1.1,1.9,0.4,3.1,0.5,4 C232.5,20.1,234.3,21.3,233.7,22.5z"/>
    <path d="M318.3,98.3c-0.7-0.7,1-1.9-0.1-2.5c-1.2-0.5,2.7-2.1,3.9-1.1c1.2,1,1.4,2.6,0.3,3.1 C321.3,98.2,319,98.9,318.3,98.3z"/>
</g>
<g class="svgmap__connections">
    <path d="M118,49c0,28.2,29,65,79,51"/>
    <path d="M197,100c-17,21,2,61,32,59"/>
    <path d="M229,159c0,33.2,83.2,60,186,60"/>
    <path d="M258,134c0,47,70.2,85,157,85"/>
    <path d="M415,219c0,64.7-23,106-66,117"/>
    <path d="M349,336c4,11-15,24-28,9"/>
    <path d="M261,226c0,65.8,26.8,119,60,119"/>
    <path d="M321,345c-14,17-48,11-53-7"/>
    <path d="M268,338c0-65.8,65.7-119,147-119"/>
    <path d="M260,226c-37-41-12-84-2-92"/>
    <path d="M229,159c-23-8-32-40-15-52"/>
    <path d="M214,107c0-32.1-42.9-58-96-58"/>
    <path d="M118,49c0,97.8,64,177,143,177"/>
    <path d="M261,226c85,12,101,77,88,110"/>
    <path d="M415,219c-13-62-131-126-199-112"/>
    <path d="M258,134c93,32,138,143,91,202"/>
    <path d="M268,338c-34-17-32-94-7-112"/>
    <path d="M268,338c5-9,52-26,81-2"/>
    <path d="M197,100c0,18.8,25,42,61,34"/>
    <path d="M118,49c0,60.8,49.6,110,111,110"/>
    <path d="M229,159c-32,102,0,172,39,179"/>
    <path d="M321,345c0-69.6,42-126,94-126"/>
    <path d="M268,338c60-61-4.5-204-10-204"/>
</g>
<g class="svgmap__points">
    <g class="svg__point" tooltip="Chile">
        <circle class="st2" cx="268" cy="338" r="10"/>
        <circle class="st3" cx="268" cy="338" r="3"/>
    </g>
    <g class="svg__point" tooltip="Argentina">
        <circle class="st2" cx="321" cy="345" r="10"/>
        <circle class="st3" cx="321" cy="345" r="3"/>
    </g>
    <g class="svg__point" tooltip="Uruguay">
        <circle class="st2" cx="349" cy="336" r="10"/>
        <circle class="st3" cx="349" cy="336" r="3"/>
    </g>
    <g class="svg__point" tooltip="Brasil">
        <circle class="st2" cx="415" cy="219" r="10"/>
        <circle class="st3" cx="415" cy="219" r="3"/>
    </g>
    <g class="svg__point" tooltip="Perú">
        <circle class="st2" cx="261" cy="226" r="10"/>
        <circle class="st3" cx="261" cy="226" r="3"/>
    </g>
    <g class="svg__point" tooltip="Ecuador">
        <circle class="st2" cx="229" cy="159" r="10"/>
        <circle class="st3" cx="229" cy="159" r="3"/>
    </g>
    <g class="svg__point" tooltip="Colombia">
        <circle class="st2" cx="258" cy="134" r="10"/>
        <circle class="st3" cx="258" cy="134" r="3"/>
    </g>
    <g class="svg__point" tooltip="Costa Rica">
        <circle class="st2" cx="197" cy="100" r="10"/>
        <circle class="st3" cx="197" cy="100" r="3"/>
    </g>
    <g class="svg__point" tooltip="Panamá">
        <circle class="st2" cx="216" cy="107" r="10"/>
        <circle class="st3" cx="216" cy="107" r="3"/>
    </g>
    <g class="svg__point" tooltip="México">
        <circle class="st2" cx="118" cy="49" r="10"/>
        <circle class="st3" cx="118" cy="49" r="3"/>
    </g>
</g>
</svg>